<svg xmlns="http://www.w3.org/2000/svg" xmlns:xlink="http://www.w3.org/1999/xlink" viewBox="0 0 1100 1100"><defs><style>.cls-1{fill:url(#linear-gradient);}.cls-2{fill:none;}.cls-3{fill:#ff0;}</style><linearGradient id="linear-gradient" x1="214.89" y1="1130.43" x2="889.42" y2="-37.9" gradientUnits="userSpaceOnUse"><stop offset="0" stop-color="#970000"/><stop offset="0.16" stop-color="#9e0000"/><stop offset="0.4" stop-color="#b20000"/><stop offset="0.68" stop-color="#d30000"/><stop offset="0.99" stop-color="red"/></linearGradient></defs><g id="Layer_2" data-name="Layer 2"><g id="Layer_2-2" data-name="Layer 2"><rect class="cls-1" width="1100" height="1100" rx="209.87"/><circle class="cls-2" cx="535.32" cy="479.69" r="91.19" transform="translate(-182.4 519.02) rotate(-45)"/><ellipse class="cls-2" cx="683.64" cy="318.33" rx="63.63" ry="63.68" transform="matrix(0.38, -0.92, 0.92, 0.38, 128.96, 829.24)"/><path class="cls-2" d="M735.92,683.54a65.46,65.46,0,1,0,84.41,35.4A65.46,65.46,0,0,0,735.92,683.54Z"/><path class="cls-3" d="M870.61,141.1c.6-8.16,1.14-15.58,1.63-22.17A29.89,29.89,0,0,0,839.4,87c-211.93,21.81-426.32,106.78-602,251.89a30.15,30.15,0,0,0-.34,46.19l16.54,14.09c82.63-66.69,178.65-130.61,288.66-176.61S765.14,153.1,870.61,141.1Z"/><path class="cls-3" d="M872.11,596.33a81.73,81.73,0,0,1-.55-163.21c-.35-103.72-.67-197.62-.87-257.34a1.15,1.15,0,0,0-1.23-1.15c-103.5,5.77-211,29.84-316.31,73.88s-198,103.7-274.85,173.37a1.15,1.15,0,0,0,0,1.68l251.4,249.72a65.47,65.47,0,0,1,92.56,91.94l249.3,247.63a1.17,1.17,0,0,0,1.65,0,1.18,1.18,0,0,0,.33-.82C873.43,987,872.79,796.13,872.11,596.33ZM570.5,563.82a91.19,91.19,0,1,1,49-119.31A91.19,91.19,0,0,1,570.5,563.82ZM624.14,341a63.66,63.66,0,1,1,86,35.27A63.88,63.88,0,0,1,624.14,341Zm160,464.3a65.46,65.46,0,1,1,36.2-86.32A65.69,65.69,0,0,1,784.13,805.26Z"/></g></g></svg>